<?xml version="1.0" encoding="utf-8"?>
<!-- Generator: Adobe Illustrator 19.2.1, SVG Export Plug-In . SVG Version: 6.00 Build 0)  -->
<svg version="1.1" id="layer" xmlns="http://www.w3.org/2000/svg" xmlns:xlink="http://www.w3.org/1999/xlink" x="0px" y="0px"
	 viewBox="0 0 652 652" style="enable-background:new 0 0 652 652;" xml:space="preserve">
<style type="text/css">
	.st0{fill:#0A0B12;}
</style>
<path class="st0" d="M597.8,246.8l-20.6,148.9c-0.2,1.5-1.5,2.5-3,2.3c0,0,0,0-0.1,0h-24.8c-1.9,0-3-1.2-2.7-2.7l20.6-148.9
	c0.2-1.5,1.5-2.5,3-2.3c0,0,0,0,0.1,0h24.8C597,244.1,598.2,245.2,597.8,246.8z M536.9,246.8l-7.6,56.2c-0.4,1.5,0.8,2.7,2.7,2.7
	h16.7c1.9,0,3.1,1.1,2.7,2.7l-3.8,25.8c-0.2,1.5-1.5,2.5-3,2.3c0,0,0,0-0.1,0H527c-1.5-0.2-2.8,0.8-3,2.2c0,0,0,0.1,0,0.1l-7.6,56.9
	c-0.2,1.5-1.5,2.5-3,2.3c0,0,0,0-0.1,0h-24.8c-2,0-3.1-1.2-2.7-2.7l20.6-148.9c0.2-1.5,1.5-2.5,3-2.3c0,0,0.1,0,0.1,0h24.7
	C536.1,244.1,537.2,245.2,536.9,246.8L536.9,246.8z M483.6,246.8l-3.4,25.8c-0.2,1.5-1.5,2.5-3,2.3c0,0,0,0-0.1,0h-47.6
	c-1.9,0-3-1.1-2.7-2.7l3.4-25.8c0.2-1.5,1.5-2.5,3-2.3c0,0,0,0,0.1,0H481C482.8,244.1,483.9,245.2,483.6,246.8L483.6,246.8z
	 M422.3,249l-7.3,54c-0.4,1.5,0.8,2.7,2.7,2.7h18.7c2.3,0,3,1.5,1.1,3.5l-29.7,26.1c-1,0.8-2.2,1.2-3.4,1.1h-21.7
	c-2,0-3.1-1.1-2.7-2.7l8-56.9c0.2-1.2,0.9-2.4,1.9-3.1l29.3-26.2C421.1,245.6,422.6,246.8,422.3,249z M475.2,308.2l-8,56.9
	c-0.2,1.3-0.9,2.4-2,3.1L436,394.5c-2,2-3.4,0.8-3.1-1.5l11.8-85c0.2-1.5,1.5-2.5,3-2.3c0,0,0,0,0.1,0h24.7
	C474.4,305.6,475.6,306.8,475.2,308.2L475.2,308.2z M369.4,246.8l-20.6,148.9c-0.2,1.5-1.5,2.5-3,2.3c0,0-0.1,0-0.1,0H321
	c-1.9,0-3-1.2-2.7-2.7L339,246.4c0.2-1.5,1.5-2.5,3-2.3c0,0,0,0,0.1,0h24.7C368.6,244.1,369.7,245.2,369.4,246.8z M428.4,369.8
	l-3.4,25.8c-0.2,1.5-1.5,2.5-3,2.3c0,0-0.1,0-0.1,0h-47.6c-2,0-3-1.2-2.7-2.7l3.4-25.8c0.2-1.5,1.5-2.5,3-2.3c0,0,0,0,0.1,0h47.6
	C427.6,367.2,428.7,368.3,428.4,369.8z M308.4,246.8L292,364.5c-0.4,1.5,0.8,2.7,2.7,2.7h18.6c2.3,0,3.1,1.5,1.1,3.5l-29.2,26.1
	c-1,0.8-2.2,1.2-3.4,1.2h-21.7c-2,0-3-1.2-2.7-2.7L278,246.4c0.2-1.5,1.5-2.5,3-2.3c0,0,0,0,0,0h24.8
	C307.7,244.1,308.8,245.2,308.4,246.8L308.4,246.8z M156.1,246.8l-3.4,25.8c-0.2,1.5-1.5,2.5-3,2.3c0,0,0,0-0.1,0h-47.6
	c-2,0-3.1-1.1-2.7-2.7l3.4-25.8c0.2-1.5,1.5-2.5,3-2.3c0,0,0,0,0.1,0h47.6C155.4,244.1,156.5,245.2,156.1,246.8L156.1,246.8z
	 M209.4,246.8L189,395.6c-0.2,1.5-1.5,2.5-3,2.3c0,0-0.1,0-0.1,0h-24.8c-2,0-3-1.2-2.7-2.7L179,246.4c0.2-1.5,1.5-2.5,3-2.3
	c0,0,0,0,0.1,0h24.7C208.7,244.1,209.8,245.2,209.4,246.8L209.4,246.8z M245.5,369.8l-3.3,25.8c-0.2,1.5-1.5,2.5-3,2.3
	c0,0,0,0-0.1,0h-40c-2,0-3.1-1.2-2.7-2.7l3.4-25.8c0.2-1.5,1.5-2.5,3-2.3c0,0,0.1,0,0.1,0h40C244.9,367.2,246,368.3,245.5,369.8
	L245.5,369.8z M94.9,249l-7.2,54c-0.4,1.5,0.8,2.7,2.7,2.7H109c2.3,0,3,1.5,1.1,3.5l-29.7,26.1c-1,0.8-2.2,1.2-3.4,1.1H55.3
	c-1.9,0-3-1.1-2.7-2.7l8-56.9c0.2-1.2,0.9-2.4,1.9-3.1l29.3-26.2C93.7,245.6,95.2,246.8,94.9,249z M147.8,308.3l-8,56.9
	c-0.2,1.3-0.9,2.4-2,3.1l-29.2,26.1c-2,2-3.4,0.8-3-1.5l11.8-85c0.2-1.5,1.5-2.5,3-2.3c0,0,0,0,0.1,0h24.8
	C147,305.6,148.2,306.8,147.8,308.3z M101,369.8l-3.5,25.8c-0.2,1.5-1.5,2.5-3,2.3c0,0,0,0-0.1,0H46.9c-1.9,0-3-1.2-2.7-2.7
	l3.4-25.8c0.2-1.5,1.5-2.5,3-2.3c0,0,0,0,0.1,0h47.6C100.2,367.2,101.3,368.3,101,369.8z M618.3,221H23.7c-1.9,0-2.7,0.8-2.7,2.7
	v194.6c0,2,0.8,2.7,2.7,2.7h594.7c1.9,0,2.7-0.8,2.7-2.7V223.7C621,221.8,620.2,221,618.3,221z"/>
</svg>
